<?xml version="1.0" encoding="UTF-8"?>
<!-- Created with Inkscape (http://www.inkscape.org/) -->
<svg width="97.079mm" height="27.915mm" version="1.1" viewBox="0 0 97.079 27.915" xmlns="http://www.w3.org/2000/svg" xmlns:cc="http://creativecommons.org/ns#" xmlns:dc="http://purl.org/dc/elements/1.1/" xmlns:rdf="http://www.w3.org/1999/02/22-rdf-syntax-ns#">
 <title>hero title</title>
 <g transform="translate(-70.74 -121.54)" stroke-width=".26458">
  <path d="m90.552 148.54q0.0762 0 0.0762-0.2032 0-0.0762-0.0254-0.1778-0.0254-0.0762-0.1016-0.1524t-0.1016-0.0762-0.0254 0.0762l0.0254 0.254q0.1016 0.2794 0.1524 0.2794zm-11.836-12.141q0.0254 0 0.0508-0.0762 0.0508-0.0762 0.0508-0.2286 0-0.127-0.0508-0.2032-0.0254-0.1016-0.0508-0.1016-0.0508 0-0.0508 0.3302 0.0254 0.2794 0.0508 0.2794zm13.741 13.056q-0.1778 0-0.3302-0.0508-0.127-0.0508-0.1524-0.127h0.0254q-0.0508-0.127-0.254-0.127l-0.2794 0.0254q-0.127 0-0.3556-0.0762t-0.4318-0.2286q-0.2032-0.127-0.3048-0.2794t-0.1524-0.4572-0.1016-0.9144q-0.0254-0.6096-0.0762-1.6002-0.0254-1.016-0.0254-1.8288 0-1.651 0.1778-2.7178 0.2032-1.3462 0.5588-3.0734 0.381-1.7272 0.6604-2.6416 0.1778-0.5334 0.1778-0.5842t0.0762-0.2794 0.1778-0.6604q0.1016-0.3302 0.1524-0.5842l0.0508-0.3048q-0.0762 0-1.7272 2.6416-2.8956 4.7244-4.9022 5.6896-1.1176 0.6096-1.8542 0.635-1.524 0-2.9464-1.2954-0.5842-0.508-0.9652-1.016-0.3048-0.4064-0.3048-0.6858l0.0254-0.1016q0-0.3048-0.1016-0.3048t-0.127-0.0762v-0.2286l0.0254-0.127q0-0.0762-0.0254-0.0762l-0.127 0.0508q-0.0508 0-0.127-0.1016-0.127-0.2794-0.4064-1.8034-0.0762-0.508-0.0762-0.9652 0-0.1778 0.0508-0.2032 0.0508-0.0508 0.0762-0.2032 0.0508-0.1778 0.0508-0.3556-0.0254-0.3048-0.0508-0.3048-0.0254 0.0254-0.127 0.3556-0.0254 0.1524-0.0762 0.1524-0.0762 0-0.127-1.1684l-0.0762-1.4986q-0.9144 2.5908-1.8288 5.6642-1.2192 4.1402-1.3462 5.4356-0.1016 0.762-0.1016 1.397-0.0508 1.5748-0.4572 2.7178-0.381 1.1684-0.9398 1.4224-0.5588 0.1778-0.8382 0.1778-0.0762 0-0.2286-0.0508-0.1778-0.0254-0.1778-0.4572 0-0.3302-0.0508-0.3556-0.0762 0-0.2286 0.2286t-0.381 0.2286q-0.0762 0-0.254-0.0508t-0.2032-0.3556-0.254-0.3556q-0.1016-0.0762-0.1016-0.4572 0-1.6764 1.4732-7.5184 0.7874-3.2004 1.7526-6.223 1.0922-3.4544 1.27-4.3942 0.2794-1.651 1.016-2.7178 0.1778-0.254 0.2794-0.4572l0.1016-0.3048q0-0.0762 0.0508-0.254 0.0762-0.1778 0.2032-0.381 0.3302-0.5842 0.4318-1.7526 0-0.0762 0.3556-0.5588 0.381-0.508 0.4318-0.6858t0.1524-0.1778 0.2794 0.127 0.381 0.127q0.0762-0.0254 0.2032-0.2286 0.1524-0.2032 0.3556-0.2032 0.4318 0 0.4318 0.7874l-0.0254 0.3048q0 0.1016 0 0.1524 0.0254 0.0254 0.0508 0.0254 0.0508 0 0.1778-0.1016t0.2286-0.1016q0.3048 0 0.3048 1.2446v0.3048q-0.0508 0.889-0.0508 1.3208 0 0.4572 0.0762 0.7366t0.2286 0.7112q0.3302 0.9652 0.4826 3.2258 0.6096 7.6708 1.7272 7.6708 0.635 0 1.8796-1.2192 1.27-1.2446 2.3368-3.0734 0.6604-1.143 0.7874-1.2954t1.1938-1.8796q0.635-1.0668 1.3208-2.032l0.4064-0.6604q1.4986-2.413 2.2098-3.2512 0.4826-0.5588 0.8128-0.5588 0.1016 0.0254 0.2286 0.0254 0.2794 0 0.6604-0.2794 0.381-0.3048 0.5334-0.6604 0.5334-1.2192 0.9652-1.2192 0.254 0 0.4318 0.1524l0.1778 0.0762q0.0508 0 0.0762-0.0254 0.254-0.254 0.4826-0.254 0.0254 0 0.1778 0.0254t0.1524 0.4318q-0.0254 0.3048-0.0254 0.6858l0.0508 0.0508q0.0254 0 0.0508-0.0508 0.1524-0.1524 0.3556-0.1524 0.2794 0.0254 0.3048 0.4318 0.0254 0.1524 0.0254 0.3556 0 0.4826-0.254 1.6256-0.3556 1.2954-1.4224 4.3688t-2.0066 6.1722q-0.9144 3.0734-1.4478 6.35-0.1778 1.3208-0.1778 2.54 0 1.7018 0.2032 2.4892 0.127 0.4826 0.127 0.889 0 0.2032-0.0762 0.5842-0.0508 0.4064-0.4064 0.5334-0.3302 0.127-0.3302 0.2794 0 0.1778-0.4572 0.1778z" style="white-space:pre"/>
  <path d="m97.918 144.27q0.0508 0 0.0508-0.0762 0-0.1778-0.1524-0.381-0.127-0.2032-0.1778-0.2032v0.0508q0 0.0762 0.1016 0.3556 0.1016 0.254 0.1778 0.254zm4.2926-1.4732q0.5588 0 1.1684-0.3048 0.635-0.3048 1.524-1.2446 2.9718-3.1496 2.9718-7.3914 0-1.7272-0.0762-1.7272l-0.0254 0.0254q-0.1016 0-0.4826-0.889-0.4064-1.1176-0.6858-1.3208-0.1778-0.1016-0.4826-0.1778-0.1778-0.0508-0.254-0.0508-0.1016 0-0.1016 0.0508l0.0508 0.1524q0 0.127-0.3302 0.127t-0.762 0.3302q-0.4318 0.3048-1.1938 1.0668-2.3622 2.3622-2.921 5.2832-0.1778 1.0414-0.2794 1.3716t-0.1016 0.9144q0 0.8636 0.127 1.8796 0.1016 0.7874 0.254 1.0922 0.508 0.8128 1.6002 0.8128zm0.9144 3.7338q-0.5334 0-1.0414-0.0254-0.4826 0-0.6858-0.0254-1.143-0.2286-2.0574-0.6858-0.889-0.4826-0.9652-0.8636 0-0.0762-0.0762-0.127-0.0508-0.0762-0.1524-0.0762t-0.2794-0.1778q-0.1778-0.2032-0.3048-0.4826-0.1778-0.381-0.1778-0.5334 0-0.127 0.1016-0.127 0.127 0 0.127-0.0508 0-0.0254-0.1524-0.127-0.5842-0.508-0.5842-3.6576 0-6.8072 4.5212-11.227 1.3716-1.4224 2.1844-1.8542 0.6096-0.3302 1.3716-0.3302l0.4826 0.0254q0.9652 0.1016 1.8542 0.1016 0.3302 0 0.5588 0.0762 0.2286 0.0508 0.508 0.2794 1.7018 1.4732 2.286 2.9972 0.4572 1.1938 0.6096 3.3528 0.0762 1.2192 0.0762 2.0574 0 1.4732-0.9144 3.8862t-1.9304 3.9624q-0.4826 0.7112-1.143 1.3462-1.1938 1.2192-2.159 1.7272-0.9398 0.508-2.0574 0.5588z" style="white-space:pre"/>
  <path d="m114.25 143.2q0.0762 0 0.4572-0.2286 1.27-0.7366 3.0734-2.286 1.2192-1.0414 1.8542-1.778 0.635-0.762 1.4224-2.3876 0.5334-1.0668 0.6604-1.6002 0.1524-0.5334 0.1524-1.524 0-1.3462-0.4064-2.3114-0.381-0.9652-1.0668-1.2954-1.3716-0.6096-1.9304-0.6096-0.1778 0-0.2794 0.0762-0.3302 0.4064-1.0414 2.5146t-1.4478 4.7498-1.1938 4.6736q-0.3048 1.397-0.3048 1.8288 0 0.1778 0.0508 0.1778zm-3.556 2.9972q0.1778 0 0.1778-0.1778t-0.1778-0.1778q-0.0762 0-0.127 0.0508-0.0762 0.0508-0.0762 0.127t0.0762 0.127q0.0508 0.0508 0.127 0.0508zm2.3368 1.1176h-0.1524q-0.4826 0-0.5842-0.1524-0.0762-0.1524-0.3048-0.1524l-0.2286 0.0508q-0.3556 0-0.7874-0.3556-0.3556-0.2794-0.4826-0.5334-0.1524-0.254-0.1524-0.7366 0-0.8382 0.508-3.2512 0.4826-2.4384 1.2192-5.3594 0.762-2.9464 1.4986-5.2832 0.5588-1.6002 0.5588-2.0574 0-0.1524-0.1016-0.1524-0.0508 0-0.1016 0.1016-0.0254 0.1016-0.1016 0.1778t-0.1524 0.0762q-0.1016 0-0.1016-0.1524l0.0508-0.3302q0-0.1016-0.0762-0.1016-0.1524 0-0.2794 0.254l-0.0254 0.0254v-0.0508q0-0.127 0.1524-0.889l-0.8636 0.762-0.3302-0.4572q-0.254-0.3302-0.254-0.8128 0-0.0254 0-0.3302 0.0254-0.3048 0.3048-0.7112 0.0762-0.1016 0.1016-0.1778 0-0.0762-0.0508-0.0762t-0.0508-0.0254l0.127-0.1778q0.6858-0.9652 1.8034-1.2446 0.7874-0.2032 2.159-0.2032 1.3208 0 2.0066 0.127 0.7112 0.1016 1.8034 0.4826 1.651 0.5588 2.4638 1.0922t1.4478 1.5494q1.4224 2.0828 1.4224 4.3688 0 1.0922-0.3556 2.8956-0.2794 1.0414-1.0922 2.7432-0.8128 1.6764-1.5748 2.7686-1.1938 1.651-3.0988 3.2512-2.8448 2.3876-4.9784 2.8448-0.762 0.1778-1.3462 0.2032z" style="white-space:pre"/>
  <path d="m126.37 147.9h-0.0508q-0.0762 0-0.0762-0.0762l0.0254-0.3048q-0.0254-0.2286-0.0762-0.2286t-0.1524 0.2032q-0.1524 0.4064-0.3556 0.4064-0.1524 0-0.3556-0.2286-0.2286-0.2286-0.2286-0.4572 0-0.2032-0.2286-0.3048-0.254-0.0508-0.254-0.7112 0-0.9398 0.508-3.0734l0.6604-2.8956q0.0762-0.508 0.4572-2.032 0.2794-1.1684 0.2794-1.4986 0-0.1016-0.0508-0.2286-0.0254-0.1524-0.4826-0.6096-0.254-0.254-0.254-0.3048t0.2286-0.0508 0.2286-0.0762q0-0.0508-0.127-0.1524-0.2286-0.2794-0.2286-0.5588 0-0.0254 0.0254-0.1778t0.3556-0.1524q0.1524 0 0.254-0.0762 0.127-0.0762 0.127-0.1524 0-0.127-0.1524-0.127l-0.3302 0.0762q-0.1524 0-0.1524-0.127t0.2794-0.3556q0.3048-0.254 0.3048-0.3556 0-0.0254-0.0508-0.0254-0.0254 0-0.0254-0.0254 0-0.0762 0.5842-0.2286 0.3556-0.1016 0.5334-0.2286t0.3302-0.4826 0.381-1.0922q0.4318-1.1938 0.4318-1.5494 0-0.254-0.127-0.4064-0.1016-0.1778-0.2286-0.3302-0.1016-0.1524-0.1778-0.2032-0.0762-0.0762-0.0762-0.1016 0-0.0508 0.127-0.0508 0.1524 0 0.1524-0.2286 0-0.127-0.0508-0.3048-0.0254-0.1778-0.0254-0.2794 0-0.127 0.0508-0.2286t0.3302-0.1778q0.3048-0.0762 0.3048-0.127t-0.254-0.1524-0.254-0.1524 0.2032-0.127q0.3302-0.2032 0.3302-0.381 0-0.2032 0.2794-0.3302 0.2794-0.1524 0.6604-0.1524 0.4064 0 0.4826-0.254 0.1016-0.2794 0.4064-0.2794l0.5334 0.0508q0.3048 0 0.4064-0.1016 0.1016-0.127 0.2286-0.127 0.1524 0 0.381 0.254 0.254 0.2286 0.9398 0.2286 0.7874 0 1.9812-0.1016 1.2192-0.1016 1.905-0.1016 0.4826 0 0.9398 0.0762 0.4572 0.0508 0.4572 0.4572 0 0.1016 0.0762 0.2286t0.2032 0.1778q0.2032 0.127 0.2032 0.5334t-0.2032 0.8128q-0.0508 0.1016-0.0508 0.1524 0 0.0254 0.0254 0.0254t0.0762-0.0254q0.0762-0.0508 0.1524-0.0508t0.0762 0.1016q0 0.0762-0.0508 0.1524-0.0508 0.0508-0.127 0.0508-0.2032 0-0.2032 0.2794 0 0.7874-3.7846 0.9652l-2.5146 0.1524-1.016 2.9718q1.0922-0.0762 2.159-0.127 1.0922-0.0762 1.651-0.0762 0.5334 0 0.635 0.3302 0.127 0.3302 0.4826 0.5588 0.2286 0.127 0.2286 0.3048 0 0.1016-0.1016 0.2032-0.0762 0.1016-0.0762 0.2032 0 0.0762 0.0762 0.127 0.1778 0.127 0.1778 0.254 0 0.0508-0.0254 0.1524 0 0.0762-0.254 0.1016-0.254 0-0.254 0.0254 0 0.0508 0.2032 0.127t0.2032 0.3048q-0.0254 0.254-0.1778 0.508-0.1524 0.2286-0.4318 0.3048-0.1524 0.0254-0.2794 0.1016-0.1016 0.0762-0.1016 0.1524 0 0.0508-0.5334 0.1016t-1.3208 0.0508q-1.7272 0-2.6924 0.127-0.381 0-0.6096 0.1016-0.3302 0.1778-0.6096 1.397l-0.635 2.6924-0.8128 3.6576q-0.4826 2.2352-0.6858 2.7432t-0.4826 0.6604q0 0.0254-0.0254 0.0254-0.3302 0.2286-0.4064 0.2286l-0.0254-0.0508q0-0.0508 0.0762-0.2286t0.0762-0.2286v-0.0254q-0.0508 0-0.254 0.254-0.1778 0.254-0.3048 0.3048z" style="white-space:pre"/>
  <path d="m136.25 146.4q0.0762 0 0.2032-0.2032 0.0254-0.0254 0.0254-0.0762 0-0.1016-0.127-0.1016-0.0762 0-0.127 0.0508-0.0762 0.0762-0.0762 0.127 0 0.2032 0.1016 0.2032zm1.6256 0.5588h-0.1016q-0.1016-0.0254-0.1016-0.4318t-0.2032-0.4064q-0.0762 0.0508-0.1016 0.127v0.127q0.0508 0.0762 0.0508 0.1524 0 0.254-0.4064 0.254-0.3048 0-0.508-0.1016-0.6604-0.254-0.6604-1.8288 0-1.397 0.508-3.7846 0.4064-1.9304 1.2954-5.1816 0.9144-3.2766 1.778-6.0198 0.889-2.7432 1.1684-3.1496 0.2794-0.2794 0.2794-0.5334 0-0.2794 0.1778-0.2794 0.2032 0 0.3048 0.2794 0.127 0.2794 0.254 0.2794t0.2286-0.3302q0.127-0.3556 0.4064-0.4064 0.3048 0 0.4318 0.2286 0.0254 0.0508 0.0254 0.1524 0 0.2286-0.127 0.6096-0.0762 0.2286-0.0762 0.4318 0 0.0762 0.0508 0.0762t0.127-0.1016q0.0762-0.127 0.127-0.3048 0.1016-0.3048 0.3048-0.3048 0.0254 0 0.127 0.0254 0.127 0.0254 0.1778 0.4064 0 0.2032 0.1524 0.889 0.0254 0.127 0.0254 0.2794 0 0.4572-0.2794 1.1938-0.508 1.3208-1.3208 4.1402t-1.5494 5.7404q-0.7112 2.8956-0.9652 4.4958-0.3048 1.905-0.4318 2.3114-0.1016 0.4064-0.3556 0.4064-0.1016 0-0.2032 0.1016-0.0762 0.1016-0.0762 0.2286t-0.0508 0.127q-0.0254 0-0.127-0.3048t-0.127-0.3048-0.0508 0.2794q-0.0508 0.4318-0.1778 0.4318z" style="white-space:pre"/>
  <path d="m146.3 137.72 0.5842-0.1778q0.762-0.2286 1.6256-0.6858 1.0922-0.5842 2.6924-2.1336l1.651-1.6256v-1.0414q0-0.4318-0.0762-0.9398-0.1524-1.016-0.508-1.27t-1.0922-0.254q-0.254 0-0.762 0.0254t-1.0922 0.1016-0.6858 0.1778-0.4318 1.0922q-0.3048 0.9906-0.6858 2.286t-0.6604 2.3622q-0.2794 1.0414-0.5588 2.0828zm-2.8702 10.185q-0.127 0-0.127-0.127 0-0.0762 0.0254-0.1524t0.0254-0.2286q-0.0254-0.0508-0.1016-0.0508-0.1778 0-0.1778 0.254 0 0.2794-0.1778 0.3048-0.0762 0-0.0762-0.2032l0.0762-0.4826q0-0.0508-0.0254-0.0508-0.0762 0-0.3302 0.2286-0.2286 0.254-0.4064 0.254-0.1524 0-0.4572-0.254-0.4064-0.2794-0.4064-0.6604l0.0254-0.1524 0.1524-1.4986q0.2286-2.0828 1.1938-6.4516 0.9652-4.3942 1.8542-7.3914 0.2032-0.6604 0.2794-1.1684 0.0762-0.3556 0.0762-0.5334 0-0.0762-0.0254-0.127v-0.127q0-0.1778 0.127-0.1778t0.127-0.0762-0.1524-0.2286q-0.127-0.1524-0.127-0.2794l0.0254-0.0762q0.0254-0.0762 0.2794-0.2794t0.2794-0.3048v-0.0254q0-0.0508-0.1524-0.0762-0.127-0.0254-0.127-0.127 0-0.127 0.381-0.5334 0.635-0.635 2.3114-1.016 1.4478-0.3302 3.0734-0.3302 1.8796 0 2.8956 0.5334 0.889 0.4826 1.6764 1.7018 0.6604 0.9652 0.8636 1.7526 0.1016 0.4826 0.1016 1.1938 0 2.4638-0.762 3.9878-0.6604 1.27-2.1336 2.7432-1.5494 1.5494-2.0574 1.905l-0.5588 0.381 0.6858 0.8382q1.4478 1.6764 1.8034 3.9116 0.1016 0.5588 0.1016 0.9906 0 1.0668-0.635 1.2192-0.1524 0.0508-0.2794 0.127-0.1016 0.1016-0.1016 0.1524 0 0.0762-0.0254 0.0762-0.0762 0-0.254-0.2286-0.1778-0.2032-0.2032-0.2032l0.0254 0.2794q-0.0254 0.0508-0.1016 0.0508t-0.1524-0.0762q-0.0508-0.0508-0.0508-0.1524t-0.1778-0.1016q-0.0762 0-0.1778 0.0254t-0.2032 0.0254q-0.1778 0-0.4064-0.127-0.2032-0.127-0.381-0.381-0.1016-0.1778-0.1016-0.3302 0-0.0762 0.0254-0.1524t0.0254-0.127-0.0254-0.0508l-0.1778 0.0762q-0.0508 0-0.0508-0.1016 0-0.127 0.0508-0.3302t0.0508-0.3048q0-0.0762-0.0254-0.0762t-0.1016 0.1016q-0.0508 0.1016-0.1778 0.1016-0.0254-0.0254-0.1016-0.2286-0.0508-0.2286-0.0508-0.381 0-0.1778 0.0508-0.2794 0.0508-0.127 0.0508-0.1524l-0.0508 0.0508h-0.0254q-0.2032 0-0.6604-0.6604-0.8382-1.3462-2.54-2.032-0.4318-0.1524-0.6604-0.254t-0.254-0.1016q-0.0762 0-0.3556 1.9558-0.0762 0.3048-0.127 0.635-0.3556 2.0828-0.635 2.921-0.254 0.8636-0.5842 0.8636-0.1016 0-0.2032 0.0508-0.0762 0.0762-0.0762 0.1524 0 0.1778-0.2032 0.1778z" style="white-space:pre"/>
  <path d="m159.92 146.76q0.0508-0.0254 0.0508-0.0508l-0.0508-0.0254q-0.0254-0.0508-0.2032-0.0508-0.0508 0-0.127 0.0254-0.0762 0.0508-0.0762 0.0762t0.3048 0.0254zm0.1778 0.2286h-1.2954q-2.032 0-2.7686-0.127-0.4826-0.1016-0.9144-0.3048-0.6858-0.2794-0.6858-0.4572 0-0.0762 0.1778-0.0762 0.3048 0 0.3048-0.127t-0.2286-0.3556q-0.254-0.2286-0.254-0.4318 0-0.0508 0.0254-0.1524 0.0254-0.127 0.3556-0.127h0.0762q0.0762 0 0.1524-0.0254 0.0762-0.0508 0.0762-0.1016 0-0.1778-0.2286-0.1778-0.254 0-0.254-0.1778 0-0.0254 0.0508-0.127 0.0254-0.1016 0.1016-0.127 0.0508-0.0254 0.1016-0.0254l0.1778 0.0508q0.0254 0 0.0254-0.0254t-0.0254-0.0762q-0.0508-0.0508-0.0508-0.1524 0-0.4572 0.3302-2.2098 0.3048-1.778 0.8636-4.2164t1.0668-4.191q0.127-0.381 0.2794-1.143l0.6858-2.413q0.4064-1.2192 0.4826-1.524t0.1778-0.6096l0.0508-0.2286q0.2032-0.6604 0.5588-1.1684 0.2032-0.3302 0.6096-0.5334 0.635-0.2794 2.8448-0.2794 2.4638 0 3.2766 0.1524t0.9652 0.508q0.2794 0.4318 0.4064 0.5588 0.1524 0.1016 0.2032 0.8382 0 0.3048-0.0254 0.5334t-0.1524 0.2286q-0.1016 0-0.127 0.254 0 0.4826-0.6096 0.635-0.5842 0.1524-2.4638 0.1524h-2.4638l-0.9906 3.3782q0.6604 0.0508 1.27 0.1016 0.6096 0.0254 0.9144 0.1016 0.3302 0.0508 0.5334 0.2032 0.2032 0.127 0.4318 0.4064 0.5588 0.6604 0.5588 1.3208 0 0.1778-0.1016 0.6858-0.0762 0.4826-1.0414 0.9398-0.5334 0.254-1.2192 0.254-0.4318 0-2.3368-0.127-0.2286 0.8636-0.508 2.2098-0.4572 2.0066-0.9906 4.5212 2.3876-0.0508 3.7084-0.0508 0.9144 0 1.0668 0.127 0.1524 0.1016 0.254 0.254 0.2794 0.4064 0.5588 0.4064 0.3048 0 0.3048 1.1176 0 0.9398-0.0762 1.1684-0.0762 0.254-0.3048 0.3048-0.3302 0.127-0.4318 0.2794-0.2286 0.1778-3.4798 0.1778z" style="white-space:pre"/>
 </g>
 <metadata>
  <rdf:RDF>
   <cc:Work rdf:about="">
    <dc:title>hero title</dc:title>
   </cc:Work>
  </rdf:RDF>
 </metadata>
</svg>
