<?xml version="1.0" encoding="UTF-8"?>
<!-- Created with Inkscape (http://www.inkscape.org/) -->
<svg width="97.079mm" height="27.915mm" version="1.1" viewBox="0 0 97.079 27.915" xmlns="http://www.w3.org/2000/svg">
 <g transform="translate(-70.74 -121.54)">
  <g transform="scale(.26458)" fill="#ccc" style="shape-inside:url(#rect306);white-space:pre" aria-label="Modfire">
   <path d="m342.24 561.4q0.288 0 0.288-0.768 0-0.288-0.096-0.672-0.096-0.288-0.384-0.576t-0.384-0.288-0.096 0.288l0.096 0.96q0.384 1.056 0.576 1.056zm-44.736-45.888q0.096 0 0.192-0.288 0.192-0.288 0.192-0.864 0-0.48-0.192-0.768-0.096-0.384-0.192-0.384-0.192 0-0.192 1.248 0.096 1.056 0.192 1.056zm51.936 49.344q-0.672 0-1.248-0.192-0.48-0.192-0.576-0.48h0.096q-0.192-0.48-0.96-0.48l-1.056 0.096q-0.48 0-1.344-0.288t-1.632-0.864q-0.768-0.48-1.152-1.056t-0.576-1.728-0.384-3.456q-0.096-2.304-0.288-6.048-0.096-3.84-0.096-6.912 0-6.24 0.672-10.272 0.768-5.088 2.112-11.616 1.44-6.528 2.496-9.984 0.672-2.016 0.672-2.208t0.288-1.056 0.672-2.496q0.384-1.248 0.576-2.208l0.192-1.152q-0.288 0-6.528 9.984-10.944 17.856-18.528 21.504-4.224 2.304-7.008 2.4-5.76 0-11.136-4.896-2.208-1.92-3.648-3.84-1.152-1.536-1.152-2.592l0.096-0.384q0-1.152-0.384-1.152t-0.48-0.288v-0.864l0.096-0.48q0-0.288-0.096-0.288l-0.48 0.192q-0.192 0-0.48-0.384-0.48-1.056-1.536-6.816-0.288-1.92-0.288-3.648 0-0.672 0.192-0.768 0.192-0.192 0.288-0.768 0.192-0.672 0.192-1.344-0.096-1.152-0.192-1.152-0.096 0.096-0.48 1.344-0.096 0.576-0.288 0.576-0.288 0-0.48-4.416l-0.288-5.664q-3.456 9.792-6.912 21.408-4.608 15.648-5.088 20.544-0.384 2.88-0.384 5.28-0.192 5.952-1.728 10.272-1.44 4.416-3.552 5.376-2.112 0.672-3.168 0.672-0.288 0-0.864-0.192-0.672-0.096-0.672-1.728 0-1.248-0.192-1.344-0.288 0-0.864 0.864t-1.44 0.864q-0.288 0-0.96-0.192t-0.768-1.344-0.96-1.344q-0.384-0.288-0.384-1.728 0-6.336 5.568-28.416 2.976-12.096 6.624-23.52 4.128-13.056 4.8-16.608 1.056-6.24 3.84-10.272 0.672-0.96 1.056-1.728l0.384-1.152q0-0.288 0.192-0.96 0.288-0.672 0.768-1.44 1.248-2.208 1.632-6.624 0-0.288 1.344-2.112 1.44-1.92 1.632-2.592t0.576-0.672 1.056 0.48 1.44 0.48q0.288-0.096 0.768-0.864 0.576-0.768 1.344-0.768 1.632 0 1.632 2.976l-0.096 1.152q0 0.384 0 0.576 0.096 0.096 0.192 0.096 0.192 0 0.672-0.384t0.864-0.384q1.152 0 1.152 4.704v1.152q-0.192 3.36-0.192 4.992 0 1.728 0.288 2.784t0.864 2.688q1.248 3.648 1.824 12.192 2.304 28.992 6.528 28.992 2.4 0 7.104-4.608 4.8-4.704 8.832-11.616 2.496-4.32 2.976-4.896t4.512-7.104q2.4-4.032 4.992-7.68l1.536-2.496q5.664-9.12 8.352-12.288 1.824-2.112 3.072-2.112 0.384 0.096 0.864 0.096 1.056 0 2.496-1.056 1.44-1.152 2.016-2.496 2.016-4.608 3.648-4.608 0.96 0 1.632 0.576l0.672 0.288q0.192 0 0.288-0.096 0.96-0.96 1.824-0.96 0.096 0 0.672 0.096t0.576 1.632q-0.096 1.152-0.096 2.592l0.192 0.192q0.096 0 0.192-0.192 0.576-0.576 1.344-0.576 1.056 0.096 1.152 1.632 0.096 0.576 0.096 1.344 0 1.824-0.96 6.144-1.344 4.896-5.376 16.512t-7.584 23.328q-3.456 11.616-5.472 24-0.672 4.992-0.672 9.6 0 6.432 0.768 9.408 0.48 1.824 0.48 3.36 0 0.768-0.288 2.208-0.192 1.536-1.536 2.016-1.248 0.48-1.248 1.056 0 0.672-1.728 0.672z"/>
   <path d="m370.08 545.28q0.192 0 0.192-0.288 0-0.672-0.576-1.44-0.48-0.768-0.672-0.768v0.192q0 0.288 0.384 1.344 0.384 0.96 0.672 0.96zm16.224-5.568q2.112 0 4.416-1.152 2.4-1.152 5.76-4.704 11.232-11.904 11.232-27.936 0-6.528-0.288-6.528l-0.096 0.096q-0.384 0-1.824-3.36-1.536-4.224-2.592-4.992-0.672-0.384-1.824-0.672-0.672-0.192-0.96-0.192-0.384 0-0.384 0.192l0.192 0.576q0 0.48-1.248 0.48t-2.88 1.248q-1.632 1.152-4.512 4.032-8.928 8.928-11.04 19.968-0.672 3.936-1.056 5.184t-0.384 3.456q0 3.264 0.48 7.104 0.384 2.976 0.96 4.128 1.92 3.072 6.048 3.072zm3.456 14.112q-2.016 0-3.936-0.096-1.824 0-2.592-0.096-4.32-0.864-7.776-2.592-3.36-1.824-3.648-3.264 0-0.288-0.288-0.48-0.192-0.288-0.576-0.288t-1.056-0.672q-0.672-0.768-1.152-1.824-0.672-1.44-0.672-2.016 0-0.48 0.384-0.48 0.48 0 0.48-0.192 0-0.096-0.576-0.48-2.208-1.92-2.208-13.824 0-25.728 17.088-42.432 5.184-5.376 8.256-7.008 2.304-1.248 5.184-1.248l1.824 0.096q3.648 0.384 7.008 0.384 1.248 0 2.112 0.288 0.864 0.192 1.92 1.056 6.432 5.568 8.64 11.328 1.728 4.512 2.304 12.672 0.288 4.608 0.288 7.776 0 5.568-3.456 14.688t-7.296 14.976q-1.824 2.688-4.32 5.088-4.512 4.608-8.16 6.528-3.552 1.92-7.776 2.112z"/>
   <path d="m431.81 541.24q0.288 0 1.728-0.864 4.8-2.784 11.616-8.64 4.608-3.936 7.008-6.72 2.4-2.88 5.376-9.024 2.016-4.032 2.496-6.048 0.576-2.016 0.576-5.76 0-5.088-1.536-8.736-1.44-3.648-4.032-4.896-5.184-2.304-7.296-2.304-0.672 0-1.056 0.288-1.248 1.536-3.936 9.504t-5.472 17.952-4.512 17.664q-1.152 5.28-1.152 6.912 0 0.672 0.192 0.672zm-13.44 11.328q0.672 0 0.672-0.672t-0.672-0.672q-0.288 0-0.48 0.192-0.288 0.192-0.288 0.48t0.288 0.48q0.192 0.192 0.48 0.192zm8.832 4.224h-0.576q-1.824 0-2.208-0.576-0.288-0.576-1.152-0.576l-0.864 0.192q-1.344 0-2.976-1.344-1.344-1.056-1.824-2.016-0.576-0.96-0.576-2.784 0-3.168 1.92-12.288 1.824-9.216 4.608-20.256 2.88-11.136 5.664-19.968 2.112-6.048 2.112-7.776 0-0.576-0.384-0.576-0.192 0-0.384 0.384-0.096 0.384-0.384 0.672t-0.576 0.288q-0.384 0-0.384-0.576l0.192-1.248q0-0.384-0.288-0.384-0.576 0-1.056 0.96l-0.096 0.096v-0.192q0-0.48 0.576-3.36l-3.264 2.88-1.248-1.728q-0.96-1.248-0.96-3.072 0-0.096 0-1.248 0.096-1.152 1.152-2.688 0.288-0.384 0.384-0.672 0-0.288-0.192-0.288t-0.192-0.096l0.48-0.672q2.592-3.648 6.816-4.704 2.976-0.768 8.16-0.768 4.992 0 7.584 0.48 2.688 0.384 6.816 1.824 6.24 2.112 9.312 4.128t5.472 5.856q5.376 7.872 5.376 16.512 0 4.128-1.344 10.944-1.056 3.936-4.128 10.368-3.072 6.336-5.952 10.464-4.512 6.24-11.712 12.288-10.752 9.024-18.816 10.752-2.88 0.672-5.088 0.768z"/>
   <path d="m477.6 559h-0.192q-0.288 0-0.288-0.288l0.096-1.152q-0.096-0.864-0.288-0.864t-0.576 0.768q-0.576 1.536-1.344 1.536-0.576 0-1.344-0.864-0.864-0.864-0.864-1.728 0-0.768-0.864-1.152-0.96-0.192-0.96-2.688 0-3.552 1.92-11.616l2.496-10.944q0.288-1.92 1.728-7.68 1.056-4.416 1.056-5.664 0-0.384-0.192-0.864-0.096-0.576-1.824-2.304-0.96-0.96-0.96-1.152t0.864-0.192 0.864-0.288q0-0.192-0.48-0.576-0.864-1.056-0.864-2.112 0-0.096 0.096-0.672t1.344-0.576q0.576 0 0.96-0.288 0.48-0.288 0.48-0.576 0-0.48-0.576-0.48l-1.248 0.288q-0.576 0-0.576-0.48t1.056-1.344q1.152-0.96 1.152-1.344 0-0.096-0.192-0.096-0.096 0-0.096-0.096 0-0.288 2.208-0.864 1.344-0.384 2.016-0.864t1.248-1.824 1.44-4.128q1.632-4.512 1.632-5.856 0-0.96-0.48-1.536-0.384-0.672-0.864-1.248-0.384-0.576-0.672-0.768-0.288-0.288-0.288-0.384 0-0.192 0.48-0.192 0.576 0 0.576-0.864 0-0.48-0.192-1.152-0.096-0.672-0.096-1.056 0-0.48 0.192-0.864t1.248-0.672q1.152-0.288 1.152-0.48t-0.96-0.576-0.96-0.576 0.768-0.48q1.248-0.768 1.248-1.44 0-0.768 1.056-1.248 1.056-0.576 2.496-0.576 1.536 0 1.824-0.96 0.384-1.056 1.536-1.056l2.016 0.192q1.152 0 1.536-0.384 0.384-0.48 0.864-0.48 0.576 0 1.44 0.96 0.96 0.864 3.552 0.864 2.976 0 7.488-0.384 4.608-0.384 7.2-0.384 1.824 0 3.552 0.288 1.728 0.192 1.728 1.728 0 0.384 0.288 0.864t0.768 0.672q0.768 0.48 0.768 2.016t-0.768 3.072q-0.192 0.384-0.192 0.576 0 0.096 0.096 0.096t0.288-0.096q0.288-0.192 0.576-0.192t0.288 0.384q0 0.288-0.192 0.576-0.192 0.192-0.48 0.192-0.768 0-0.768 1.056 0 2.976-14.304 3.648l-9.504 0.576-3.84 11.232q4.128-0.288 8.16-0.48 4.128-0.288 6.24-0.288 2.016 0 2.4 1.248 0.48 1.248 1.824 2.112 0.864 0.48 0.864 1.152 0 0.384-0.384 0.768-0.288 0.384-0.288 0.768 0 0.288 0.288 0.48 0.672 0.48 0.672 0.96 0 0.192-0.096 0.576 0 0.288-0.96 0.384-0.96 0-0.96 0.096 0 0.192 0.768 0.48t0.768 1.152q-0.096 0.96-0.672 1.92-0.576 0.864-1.632 1.152-0.576 0.096-1.056 0.384-0.384 0.288-0.384 0.576 0 0.192-2.016 0.384t-4.992 0.192q-6.528 0-10.176 0.48-1.44 0-2.304 0.384-1.248 0.672-2.304 5.28l-2.4 10.176-3.072 13.824q-1.824 8.448-2.592 10.368t-1.824 2.496q0 0.096-0.096 0.096-1.248 0.864-1.536 0.864l-0.096-0.192q0-0.192 0.288-0.864t0.288-0.864v-0.096q-0.192 0-0.96 0.96-0.672 0.96-1.152 1.152z"/>
   <path d="m514.95 553.34q0.288 0 0.768-0.768 0.096-0.096 0.096-0.288 0-0.384-0.48-0.384-0.288 0-0.48 0.192-0.288 0.288-0.288 0.48 0 0.768 0.384 0.768zm6.144 2.112h-0.384q-0.384-0.096-0.384-1.632t-0.768-1.536q-0.288 0.192-0.384 0.48v0.48q0.192 0.288 0.192 0.576 0 0.96-1.536 0.96-1.152 0-1.92-0.384-2.496-0.96-2.496-6.912 0-5.28 1.92-14.304 1.536-7.296 4.896-19.584 3.456-12.384 6.72-22.752 3.36-10.368 4.416-11.904 1.056-1.056 1.056-2.016 0-1.056 0.672-1.056 0.768 0 1.152 1.056 0.48 1.056 0.96 1.056t0.864-1.248q0.48-1.344 1.536-1.536 1.152 0 1.632 0.864 0.096 0.192 0.096 0.576 0 0.864-0.48 2.304-0.288 0.864-0.288 1.632 0 0.288 0.192 0.288t0.48-0.384q0.288-0.48 0.48-1.152 0.384-1.152 1.152-1.152 0.096 0 0.48 0.096 0.48 0.096 0.672 1.536 0 0.768 0.576 3.36 0.096 0.48 0.096 1.056 0 1.728-1.056 4.512-1.92 4.992-4.992 15.648t-5.856 21.696q-2.688 10.944-3.648 16.992-1.152 7.2-1.632 8.736-0.384 1.536-1.344 1.536-0.384 0-0.768 0.384-0.288 0.384-0.288 0.864t-0.192 0.48q-0.096 0-0.48-1.152t-0.48-1.152-0.192 1.056q-0.192 1.632-0.672 1.632z"/>
   <path d="m552.96 520.51 2.208-0.672q2.88-0.864 6.144-2.592 4.128-2.208 10.176-8.064l6.24-6.144v-3.936q0-1.632-0.288-3.552-0.576-3.84-1.92-4.8t-4.128-0.96q-0.96 0-2.88 0.096t-4.128 0.384-2.592 0.672-1.632 4.128q-1.152 3.744-2.592 8.64t-2.496 8.928q-1.056 3.936-2.112 7.872zm-10.848 38.496q-0.48 0-0.48-0.48 0-0.288 0.096-0.576t0.096-0.864q-0.096-0.192-0.384-0.192-0.672 0-0.672 0.96 0 1.056-0.672 1.152-0.288 0-0.288-0.768l0.288-1.824q0-0.192-0.096-0.192-0.288 0-1.248 0.864-0.864 0.96-1.536 0.96-0.576 0-1.728-0.96-1.536-1.056-1.536-2.496l0.096-0.576 0.576-5.664q0.864-7.872 4.512-24.384 3.648-16.608 7.008-27.936 0.768-2.496 1.056-4.416 0.288-1.344 0.288-2.016 0-0.288-0.096-0.48v-0.48q0-0.672 0.48-0.672t0.48-0.288-0.576-0.864q-0.48-0.576-0.48-1.056l0.096-0.288q0.096-0.288 1.056-1.056t1.056-1.152v-0.096q0-0.192-0.576-0.288-0.48-0.096-0.48-0.48 0-0.48 1.44-2.016 2.4-2.4 8.736-3.84 5.472-1.248 11.616-1.248 7.104 0 10.944 2.016 3.36 1.824 6.336 6.432 2.496 3.648 3.264 6.624 0.384 1.824 0.384 4.512 0 9.312-2.88 15.072-2.496 4.8-8.064 10.368-5.856 5.856-7.776 7.2l-2.112 1.44 2.592 3.168q5.472 6.336 6.816 14.784 0.384 2.112 0.384 3.744 0 4.032-2.4 4.608-0.576 0.192-1.056 0.48-0.384 0.384-0.384 0.576 0 0.288-0.096 0.288-0.288 0-0.96-0.864-0.672-0.768-0.768-0.768l0.096 1.056q-0.096 0.192-0.384 0.192t-0.576-0.288q-0.192-0.192-0.192-0.576t-0.672-0.384q-0.288 0-0.672 0.096t-0.768 0.096q-0.672 0-1.536-0.48-0.768-0.48-1.44-1.44-0.384-0.672-0.384-1.248 0-0.288 0.096-0.576t0.096-0.48-0.096-0.192l-0.672 0.288q-0.192 0-0.192-0.384 0-0.48 0.192-1.248t0.192-1.152q0-0.288-0.096-0.288t-0.384 0.384q-0.192 0.384-0.672 0.384-0.096-0.096-0.384-0.864-0.192-0.864-0.192-1.44 0-0.672 0.192-1.056 0.192-0.48 0.192-0.576l-0.192 0.192h-0.096q-0.768 0-2.496-2.496-3.168-5.088-9.6-7.68-1.632-0.576-2.496-0.96t-0.96-0.384q-0.288 0-1.344 7.392-0.288 1.152-0.48 2.4-1.344 7.872-2.4 11.04-0.96 3.264-2.208 3.264-0.384 0-0.768 0.192-0.288 0.288-0.288 0.576 0 0.672-0.768 0.672z"/>
   <path d="m604.42 554.68q0.192-0.096 0.192-0.192l-0.192-0.096q-0.096-0.192-0.768-0.192-0.192 0-0.48 0.096-0.288 0.192-0.288 0.288t1.152 0.096zm0.672 0.864h-4.896q-7.68 0-10.464-0.48-1.824-0.384-3.456-1.152-2.592-1.056-2.592-1.728 0-0.288 0.672-0.288 1.152 0 1.152-0.48t-0.864-1.344q-0.96-0.864-0.96-1.632 0-0.192 0.096-0.576 0.096-0.48 1.344-0.48h0.288q0.288 0 0.576-0.096 0.288-0.192 0.288-0.384 0-0.672-0.864-0.672-0.96 0-0.96-0.672 0-0.096 0.192-0.48 0.096-0.384 0.384-0.48 0.192-0.096 0.384-0.096l0.672 0.192q0.096 0 0.096-0.096t-0.096-0.288q-0.192-0.192-0.192-0.576 0-1.728 1.248-8.352 1.152-6.72 3.264-15.936t4.032-15.84q0.48-1.44 1.056-4.32l2.592-9.12q1.536-4.608 1.824-5.76t0.672-2.304l0.192-0.864q0.768-2.496 2.112-4.416 0.768-1.248 2.304-2.016 2.4-1.056 10.752-1.056 9.312 0 12.384 0.576t3.648 1.92q1.056 1.632 1.536 2.112 0.576 0.384 0.768 3.168 0 1.152-0.096 2.016t-0.576 0.864q-0.384 0-0.48 0.96 0 1.824-2.304 2.4-2.208 0.576-9.312 0.576h-9.312l-3.744 12.768q2.496 0.192 4.8 0.384 2.304 0.096 3.456 0.384 1.248 0.192 2.016 0.768 0.768 0.48 1.632 1.536 2.112 2.496 2.112 4.992 0 0.672-0.384 2.592-0.288 1.824-3.936 3.552-2.016 0.96-4.608 0.96-1.632 0-8.832-0.48-0.864 3.264-1.92 8.352-1.728 7.584-3.744 17.088 9.024-0.192 14.016-0.192 3.456 0 4.032 0.48 0.576 0.384 0.96 0.96 1.056 1.536 2.112 1.536 1.152 0 1.152 4.224 0 3.552-0.288 4.416-0.288 0.96-1.152 1.152-1.248 0.48-1.632 1.056-0.864 0.672-13.152 0.672z"/>
  </g>
 </g>
</svg>
